#usda 1.0
(
    defaultPrim = "TrafficCone"
    metersPerUnit = 1
    upAxis = "Z"
)

def Xform "TrafficCone"
{
    def Mesh "RubberBase" (
        prepend apiSchemas = ["PhysicsCollisionAPI", "PhysicsMeshCollisionAPI"]
    )
    {
        uniform token subdivisionScheme = "none"
        point3f[] points = [(-0.191000, -0.220000, 0.000000), (0.191000, -0.220000, 0.000000), (0.220000, -0.191000, 0.000000), (0.220000, 0.191000, 0.000000), (0.191000, 0.220000, 0.000000), (-0.191000, 0.220000, 0.000000), (-0.220000, 0.191000, 0.000000), (-0.220000, -0.191000, 0.000000), (-0.191000, -0.220000, 0.024000), (0.191000, -0.220000, 0.024000), (0.220000, -0.191000, 0.024000), (0.220000, 0.191000, 0.024000), (0.191000, 0.220000, 0.024000), (-0.191000, 0.220000, 0.024000), (-0.220000, 0.191000, 0.024000), (-0.220000, -0.191000, 0.024000), (-0.168500, -0.197500, 0.055000), (0.168500, -0.197500, 0.055000), (0.197500, -0.168500, 0.055000), (0.197500, 0.168500, 0.055000), (0.168500, 0.197500, 0.055000), (-0.168500, 0.197500, 0.055000), (-0.197500, 0.168500, 0.055000), (-0.197500, -0.168500, 0.055000), (-0.143000, -0.172000, 0.068000), (0.143000, -0.172000, 0.068000), (0.172000, -0.143000, 0.068000), (0.172000, 0.143000, 0.068000), (0.143000, 0.172000, 0.068000), (-0.143000, 0.172000, 0.068000), (-0.172000, 0.143000, 0.068000), (-0.172000, -0.143000, 0.068000)]
        int[] faceVertexCounts = [4, 4, 4, 4, 4, 4, 4, 4, 4, 4, 4, 4, 4, 4, 4, 4, 4, 4, 4, 4, 4, 4, 4, 4, 8, 8]
        int[] faceVertexIndices = [0, 1, 9, 8, 1, 2, 10, 9, 2, 3, 11, 10, 3, 4, 12, 11, 4, 5, 13, 12, 5, 6, 14, 13, 6, 7, 15, 14, 7, 0, 8, 15, 8, 9, 17, 16, 9, 10, 18, 17, 10, 11, 19, 18, 11, 12, 20, 19, 12, 13, 21, 20, 13, 14, 22, 21, 14, 15, 23, 22, 15, 8, 16, 23, 16, 17, 25, 24, 17, 18, 26, 25, 18, 19, 27, 26, 19, 20, 28, 27, 20, 21, 29, 28, 21, 22, 30, 29, 22, 23, 31, 30, 23, 16, 24, 31, 7, 6, 5, 4, 3, 2, 1, 0, 24, 25, 26, 27, 28, 29, 30, 31]
        rel material:binding = </TrafficCone/Looks/Rubber>
        uniform token physics:approximation = "convexHull"
    }
    def Mesh "OrangeCollar"
    {
        uniform token subdivisionScheme = "none"
        point3f[] points = [(0.171000, 0.000000, 0.068000), (0.167714, 0.033360, 0.068000), (0.157983, 0.065439, 0.068000), (0.142181, 0.095003, 0.068000), (0.120915, 0.120915, 0.068000), (0.095003, 0.142181, 0.068000), (0.065439, 0.157983, 0.068000), (0.033360, 0.167714, 0.068000), (0.000000, 0.171000, 0.068000), (-0.033360, 0.167714, 0.068000), (-0.065439, 0.157983, 0.068000), (-0.095003, 0.142181, 0.068000), (-0.120915, 0.120915, 0.068000), (-0.142181, 0.095003, 0.068000), (-0.157983, 0.065439, 0.068000), (-0.167714, 0.033360, 0.068000), (-0.171000, 0.000000, 0.068000), (-0.167714, -0.033360, 0.068000), (-0.157983, -0.065439, 0.068000), (-0.142181, -0.095003, 0.068000), (-0.120915, -0.120915, 0.068000), (-0.095003, -0.142181, 0.068000), (-0.065439, -0.157983, 0.068000), (-0.033360, -0.167714, 0.068000), (-0.000000, -0.171000, 0.068000), (0.033360, -0.167714, 0.068000), (0.065439, -0.157983, 0.068000), (0.095003, -0.142181, 0.068000), (0.120915, -0.120915, 0.068000), (0.142181, -0.095003, 0.068000), (0.157983, -0.065439, 0.068000), (0.167714, -0.033360, 0.068000), (0.162000, 0.000000, 0.092000), (0.158887, 0.031605, 0.092000), (0.149668, 0.061995, 0.092000), (0.134698, 0.090002, 0.092000), (0.114551, 0.114551, 0.092000), (0.090002, 0.134698, 0.092000), (0.061995, 0.149668, 0.092000), (0.031605, 0.158887, 0.092000), (0.000000, 0.162000, 0.092000), (-0.031605, 0.158887, 0.092000), (-0.061995, 0.149668, 0.092000), (-0.090002, 0.134698, 0.092000), (-0.114551, 0.114551, 0.092000), (-0.134698, 0.090002, 0.092000), (-0.149668, 0.061995, 0.092000), (-0.158887, 0.031605, 0.092000), (-0.162000, 0.000000, 0.092000), (-0.158887, -0.031605, 0.092000), (-0.149668, -0.061995, 0.092000), (-0.134698, -0.090002, 0.092000), (-0.114551, -0.114551, 0.092000), (-0.090002, -0.134698, 0.092000), (-0.061995, -0.149668, 0.092000), (-0.031605, -0.158887, 0.092000), (-0.000000, -0.162000, 0.092000), (0.031605, -0.158887, 0.092000), (0.061995, -0.149668, 0.092000), (0.090002, -0.134698, 0.092000), (0.114551, -0.114551, 0.092000), (0.134698, -0.090002, 0.092000), (0.149668, -0.061995, 0.092000), (0.158887, -0.031605, 0.092000)]
        int[] faceVertexCounts = [4, 4, 4, 4, 4, 4, 4, 4, 4, 4, 4, 4, 4, 4, 4, 4, 4, 4, 4, 4, 4, 4, 4, 4, 4, 4, 4, 4, 4, 4, 4, 4, 32, 32]
        int[] faceVertexIndices = [0, 1, 33, 32, 1, 2, 34, 33, 2, 3, 35, 34, 3, 4, 36, 35, 4, 5, 37, 36, 5, 6, 38, 37, 6, 7, 39, 38, 7, 8, 40, 39, 8, 9, 41, 40, 9, 10, 42, 41, 10, 11, 43, 42, 11, 12, 44, 43, 12, 13, 45, 44, 13, 14, 46, 45, 14, 15, 47, 46, 15, 16, 48, 47, 16, 17, 49, 48, 17, 18, 50, 49, 18, 19, 51, 50, 19, 20, 52, 51, 20, 21, 53, 52, 21, 22, 54, 53, 22, 23, 55, 54, 23, 24, 56, 55, 24, 25, 57, 56, 25, 26, 58, 57, 26, 27, 59, 58, 27, 28, 60, 59, 28, 29, 61, 60, 29, 30, 62, 61, 30, 31, 63, 62, 31, 0, 32, 63, 31, 30, 29, 28, 27, 26, 25, 24, 23, 22, 21, 20, 19, 18, 17, 16, 15, 14, 13, 12, 11, 10, 9, 8, 7, 6, 5, 4, 3, 2, 1, 0, 32, 33, 34, 35, 36, 37, 38, 39, 40, 41, 42, 43, 44, 45, 46, 47, 48, 49, 50, 51, 52, 53, 54, 55, 56, 57, 58, 59, 60, 61, 62, 63]
        rel material:binding = </TrafficCone/Looks/Orange>
    }
    def Mesh "ConeBody" (
        prepend apiSchemas = ["PhysicsCollisionAPI", "PhysicsMeshCollisionAPI"]
    )
    {
        uniform token subdivisionScheme = "none"
        point3f[] points = [(0.165000, 0.000000, 0.068000), (0.161830, 0.032190, 0.068000), (0.152440, 0.063143, 0.068000), (0.137192, 0.091669, 0.068000), (0.116673, 0.116673, 0.068000), (0.091669, 0.137192, 0.068000), (0.063143, 0.152440, 0.068000), (0.032190, 0.161830, 0.068000), (0.000000, 0.165000, 0.068000), (-0.032190, 0.161830, 0.068000), (-0.063143, 0.152440, 0.068000), (-0.091669, 0.137192, 0.068000), (-0.116673, 0.116673, 0.068000), (-0.137192, 0.091669, 0.068000), (-0.152440, 0.063143, 0.068000), (-0.161830, 0.032190, 0.068000), (-0.165000, 0.000000, 0.068000), (-0.161830, -0.032190, 0.068000), (-0.152440, -0.063143, 0.068000), (-0.137192, -0.091669, 0.068000), (-0.116673, -0.116673, 0.068000), (-0.091669, -0.137192, 0.068000), (-0.063143, -0.152440, 0.068000), (-0.032190, -0.161830, 0.068000), (-0.000000, -0.165000, 0.068000), (0.032190, -0.161830, 0.068000), (0.063143, -0.152440, 0.068000), (0.091669, -0.137192, 0.068000), (0.116673, -0.116673, 0.068000), (0.137192, -0.091669, 0.068000), (0.152440, -0.063143, 0.068000), (0.161830, -0.032190, 0.068000), (0.026000, 0.000000, 0.720000), (0.025500, 0.005072, 0.720000), (0.024021, 0.009950, 0.720000), (0.021618, 0.014445, 0.720000), (0.018385, 0.018385, 0.720000), (0.014445, 0.021618, 0.720000), (0.009950, 0.024021, 0.720000), (0.005072, 0.025500, 0.720000), (0.000000, 0.026000, 0.720000), (-0.005072, 0.025500, 0.720000), (-0.009950, 0.024021, 0.720000), (-0.014445, 0.021618, 0.720000), (-0.018385, 0.018385, 0.720000), (-0.021618, 0.014445, 0.720000), (-0.024021, 0.009950, 0.720000), (-0.025500, 0.005072, 0.720000), (-0.026000, 0.000000, 0.720000), (-0.025500, -0.005072, 0.720000), (-0.024021, -0.009950, 0.720000), (-0.021618, -0.014445, 0.720000), (-0.018385, -0.018385, 0.720000), (-0.014445, -0.021618, 0.720000), (-0.009950, -0.024021, 0.720000), (-0.005072, -0.025500, 0.720000), (-0.000000, -0.026000, 0.720000), (0.005072, -0.025500, 0.720000), (0.009950, -0.024021, 0.720000), (0.014445, -0.021618, 0.720000), (0.018385, -0.018385, 0.720000), (0.021618, -0.014445, 0.720000), (0.024021, -0.009950, 0.720000), (0.025500, -0.005072, 0.720000)]
        int[] faceVertexCounts = [4, 4, 4, 4, 4, 4, 4, 4, 4, 4, 4, 4, 4, 4, 4, 4, 4, 4, 4, 4, 4, 4, 4, 4, 4, 4, 4, 4, 4, 4, 4, 4, 32, 32]
        int[] faceVertexIndices = [0, 1, 33, 32, 1, 2, 34, 33, 2, 3, 35, 34, 3, 4, 36, 35, 4, 5, 37, 36, 5, 6, 38, 37, 6, 7, 39, 38, 7, 8, 40, 39, 8, 9, 41, 40, 9, 10, 42, 41, 10, 11, 43, 42, 11, 12, 44, 43, 12, 13, 45, 44, 13, 14, 46, 45, 14, 15, 47, 46, 15, 16, 48, 47, 16, 17, 49, 48, 17, 18, 50, 49, 18, 19, 51, 50, 19, 20, 52, 51, 20, 21, 53, 52, 21, 22, 54, 53, 22, 23, 55, 54, 23, 24, 56, 55, 24, 25, 57, 56, 25, 26, 58, 57, 26, 27, 59, 58, 27, 28, 60, 59, 28, 29, 61, 60, 29, 30, 62, 61, 30, 31, 63, 62, 31, 0, 32, 63, 31, 30, 29, 28, 27, 26, 25, 24, 23, 22, 21, 20, 19, 18, 17, 16, 15, 14, 13, 12, 11, 10, 9, 8, 7, 6, 5, 4, 3, 2, 1, 0, 32, 33, 34, 35, 36, 37, 38, 39, 40, 41, 42, 43, 44, 45, 46, 47, 48, 49, 50, 51, 52, 53, 54, 55, 56, 57, 58, 59, 60, 61, 62, 63]
        rel material:binding = </TrafficCone/Looks/Orange>
        uniform token physics:approximation = "convexHull"
    }
    def Mesh "LowerWhiteBand"
    {
        uniform token subdivisionScheme = "none"
        point3f[] points = [(0.123736, 0.000000, 0.270000), (0.121358, 0.024140, 0.270000), (0.114317, 0.047352, 0.270000), (0.102882, 0.068744, 0.270000), (0.087494, 0.087494, 0.270000), (0.068744, 0.102882, 0.270000), (0.047352, 0.114317, 0.270000), (0.024140, 0.121358, 0.270000), (0.000000, 0.123736, 0.270000), (-0.024140, 0.121358, 0.270000), (-0.047352, 0.114317, 0.270000), (-0.068744, 0.102882, 0.270000), (-0.087494, 0.087494, 0.270000), (-0.102882, 0.068744, 0.270000), (-0.114317, 0.047352, 0.270000), (-0.121358, 0.024140, 0.270000), (-0.123736, 0.000000, 0.270000), (-0.121358, -0.024140, 0.270000), (-0.114317, -0.047352, 0.270000), (-0.102882, -0.068744, 0.270000), (-0.087494, -0.087494, 0.270000), (-0.068744, -0.102882, 0.270000), (-0.047352, -0.114317, 0.270000), (-0.024140, -0.121358, 0.270000), (-0.000000, -0.123736, 0.270000), (0.024140, -0.121358, 0.270000), (0.047352, -0.114317, 0.270000), (0.068744, -0.102882, 0.270000), (0.087494, -0.087494, 0.270000), (0.102882, -0.068744, 0.270000), (0.114317, -0.047352, 0.270000), (0.121358, -0.024140, 0.270000), (0.104122, 0.000000, 0.362000), (0.102121, 0.020313, 0.362000), (0.096196, 0.039846, 0.362000), (0.086574, 0.057847, 0.362000), (0.073625, 0.073625, 0.362000), (0.057847, 0.086574, 0.362000), (0.039846, 0.096196, 0.362000), (0.020313, 0.102121, 0.362000), (0.000000, 0.104122, 0.362000), (-0.020313, 0.102121, 0.362000), (-0.039846, 0.096196, 0.362000), (-0.057847, 0.086574, 0.362000), (-0.073625, 0.073625, 0.362000), (-0.086574, 0.057847, 0.362000), (-0.096196, 0.039846, 0.362000), (-0.102121, 0.020313, 0.362000), (-0.104122, 0.000000, 0.362000), (-0.102121, -0.020313, 0.362000), (-0.096196, -0.039846, 0.362000), (-0.086574, -0.057847, 0.362000), (-0.073625, -0.073625, 0.362000), (-0.057847, -0.086574, 0.362000), (-0.039846, -0.096196, 0.362000), (-0.020313, -0.102121, 0.362000), (-0.000000, -0.104122, 0.362000), (0.020313, -0.102121, 0.362000), (0.039846, -0.096196, 0.362000), (0.057847, -0.086574, 0.362000), (0.073625, -0.073625, 0.362000), (0.086574, -0.057847, 0.362000), (0.096196, -0.039846, 0.362000), (0.102121, -0.020313, 0.362000)]
        int[] faceVertexCounts = [4, 4, 4, 4, 4, 4, 4, 4, 4, 4, 4, 4, 4, 4, 4, 4, 4, 4, 4, 4, 4, 4, 4, 4, 4, 4, 4, 4, 4, 4, 4, 4]
        int[] faceVertexIndices = [0, 1, 33, 32, 1, 2, 34, 33, 2, 3, 35, 34, 3, 4, 36, 35, 4, 5, 37, 36, 5, 6, 38, 37, 6, 7, 39, 38, 7, 8, 40, 39, 8, 9, 41, 40, 9, 10, 42, 41, 10, 11, 43, 42, 11, 12, 44, 43, 12, 13, 45, 44, 13, 14, 46, 45, 14, 15, 47, 46, 15, 16, 48, 47, 16, 17, 49, 48, 17, 18, 50, 49, 18, 19, 51, 50, 19, 20, 52, 51, 20, 21, 53, 52, 21, 22, 54, 53, 22, 23, 55, 54, 23, 24, 56, 55, 24, 25, 57, 56, 25, 26, 58, 57, 26, 27, 59, 58, 27, 28, 60, 59, 28, 29, 61, 60, 29, 30, 62, 61, 30, 31, 63, 62, 31, 0, 32, 63]
        rel material:binding = </TrafficCone/Looks/White>
    }
    def Mesh "UpperWhiteBand"
    {
        uniform token subdivisionScheme = "none"
        point3f[] points = [(0.080884, 0.000000, 0.471000), (0.079330, 0.015780, 0.471000), (0.074727, 0.030953, 0.471000), (0.067253, 0.044937, 0.471000), (0.057194, 0.057194, 0.471000), (0.044937, 0.067253, 0.471000), (0.030953, 0.074727, 0.471000), (0.015780, 0.079330, 0.471000), (0.000000, 0.080884, 0.471000), (-0.015780, 0.079330, 0.471000), (-0.030953, 0.074727, 0.471000), (-0.044937, 0.067253, 0.471000), (-0.057194, 0.057194, 0.471000), (-0.067253, 0.044937, 0.471000), (-0.074727, 0.030953, 0.471000), (-0.079330, 0.015780, 0.471000), (-0.080884, 0.000000, 0.471000), (-0.079330, -0.015780, 0.471000), (-0.074727, -0.030953, 0.471000), (-0.067253, -0.044937, 0.471000), (-0.057194, -0.057194, 0.471000), (-0.044937, -0.067253, 0.471000), (-0.030953, -0.074727, 0.471000), (-0.015780, -0.079330, 0.471000), (-0.000000, -0.080884, 0.471000), (0.015780, -0.079330, 0.471000), (0.030953, -0.074727, 0.471000), (0.044937, -0.067253, 0.471000), (0.057194, -0.057194, 0.471000), (0.067253, -0.044937, 0.471000), (0.074727, -0.030953, 0.471000), (0.079330, -0.015780, 0.471000), (0.065961, 0.000000, 0.541000), (0.064694, 0.012868, 0.541000), (0.060940, 0.025242, 0.541000), (0.054845, 0.036646, 0.541000), (0.046642, 0.046642, 0.541000), (0.036646, 0.054845, 0.541000), (0.025242, 0.060940, 0.541000), (0.012868, 0.064694, 0.541000), (0.000000, 0.065961, 0.541000), (-0.012868, 0.064694, 0.541000), (-0.025242, 0.060940, 0.541000), (-0.036646, 0.054845, 0.541000), (-0.046642, 0.046642, 0.541000), (-0.054845, 0.036646, 0.541000), (-0.060940, 0.025242, 0.541000), (-0.064694, 0.012868, 0.541000), (-0.065961, 0.000000, 0.541000), (-0.064694, -0.012868, 0.541000), (-0.060940, -0.025242, 0.541000), (-0.054845, -0.036646, 0.541000), (-0.046642, -0.046642, 0.541000), (-0.036646, -0.054845, 0.541000), (-0.025242, -0.060940, 0.541000), (-0.012868, -0.064694, 0.541000), (-0.000000, -0.065961, 0.541000), (0.012868, -0.064694, 0.541000), (0.025242, -0.060940, 0.541000), (0.036646, -0.054845, 0.541000), (0.046642, -0.046642, 0.541000), (0.054845, -0.036646, 0.541000), (0.060940, -0.025242, 0.541000), (0.064694, -0.012868, 0.541000)]
        int[] faceVertexCounts = [4, 4, 4, 4, 4, 4, 4, 4, 4, 4, 4, 4, 4, 4, 4, 4, 4, 4, 4, 4, 4, 4, 4, 4, 4, 4, 4, 4, 4, 4, 4, 4]
        int[] faceVertexIndices = [0, 1, 33, 32, 1, 2, 34, 33, 2, 3, 35, 34, 3, 4, 36, 35, 4, 5, 37, 36, 5, 6, 38, 37, 6, 7, 39, 38, 7, 8, 40, 39, 8, 9, 41, 40, 9, 10, 42, 41, 10, 11, 43, 42, 11, 12, 44, 43, 12, 13, 45, 44, 13, 14, 46, 45, 14, 15, 47, 46, 15, 16, 48, 47, 16, 17, 49, 48, 17, 18, 50, 49, 18, 19, 51, 50, 19, 20, 52, 51, 20, 21, 53, 52, 21, 22, 54, 53, 22, 23, 55, 54, 23, 24, 56, 55, 24, 25, 57, 56, 25, 26, 58, 57, 26, 27, 59, 58, 27, 28, 60, 59, 28, 29, 61, 60, 29, 30, 62, 61, 30, 31, 63, 62, 31, 0, 32, 63]
        rel material:binding = </TrafficCone/Looks/White>
    }
    def Scope "Looks"
    {
        def Material "Orange"
        {
            token outputs:surface.connect = </TrafficCone/Looks/Orange/Surface.outputs:surface>
            def Shader "Surface"
            {
                uniform token info:id = "UsdPreviewSurface"
                color3f inputs:diffuseColor = (0.95, 0.21, 0.016)
                float inputs:metallic = 0
                float inputs:roughness = 0.47
                token outputs:surface
            }
        }
        def Material "White"
        {
            token outputs:surface.connect = </TrafficCone/Looks/White/Surface.outputs:surface>
            def Shader "Surface"
            {
                uniform token info:id = "UsdPreviewSurface"
                color3f inputs:diffuseColor = (0.89, 0.90, 0.83)
                float inputs:metallic = 0
                float inputs:roughness = 0.54
                token outputs:surface
            }
        }
        def Material "Rubber"
        {
            token outputs:surface.connect = </TrafficCone/Looks/Rubber/Surface.outputs:surface>
            def Shader "Surface"
            {
                uniform token info:id = "UsdPreviewSurface"
                color3f inputs:diffuseColor = (0.080, 0.086, 0.090)
                float inputs:metallic = 0
                float inputs:roughness = 0.79
                token outputs:surface
            }
        }
    }
}
